# xmcd CD database file
#
# Track frame offsets:
#	150
#	24937
#	49925
#
# Disc length: 995 seconds
#
# Revision: 0
# Processed by: cddbd v1.5PL3 Copyright (c) Steve Scherf et al.
# Submitted via: CDex 1.50Beta3
#
DISCID=1b03e103
DTITLE=Bri-hall - Can we get together
DYEAR=2001
DGENRE=R&B
TTITLE0=can we get together
TTITLE1=Can we get together
TTITLE2=Can we get together
EXTD=YEAR: 2001
EXTT0=
EXTT1=
EXTT2=
PLAYORDER=
